<?xml version="1.0" standalone="no"?>
<!DOCTYPE svg PUBLIC "-//W3C//DTD SVG 20010904//EN"
 "http://www.w3.org/TR/2001/REC-SVG-20010904/DTD/svg10.dtd">
<svg version="1.0" xmlns="http://www.w3.org/2000/svg"
 width="115.000000pt" height="115.000000pt" viewBox="0 0 115.000000 115.000000"
 preserveAspectRatio="xMidYMid meet">
<metadata>
Created by potrace 1.14, written by Peter Selinger 2001-2017
</metadata>
<g transform="translate(0.000000,115.000000) scale(0.100000,-0.100000)"
fill="#000000" stroke="none">
<path d="M415 1072 c-290 -86 -444 -389 -340 -669 93 -249 365 -383 622 -305
137 42 244 135 307 267 37 75 48 125 51 221 2 80 -8 108 -33 95 -15 -8 -18
-19 -14 -68 11 -165 -78 -340 -216 -423 -94 -58 -237 -82 -342 -59 -246 53
-406 306 -350 554 29 128 129 252 255 315 69 34 73 35 199 36 130 1 153 7 121
34 -26 22 -189 23 -260 2z"/>
<path d="M752 1027 c-14 -17 -6 -26 48 -61 62 -39 122 -106 159 -177 32 -58
53 -73 64 -44 9 23 -52 131 -106 186 -45 46 -130 109 -148 109 -3 0 -11 -6
-17 -13z"/>
<path d="M416 969 c-262 -97 -356 -413 -188 -634 45 -59 96 -97 177 -130 52
-21 73 -24 156 -22 85 2 103 6 160 35 160 78 238 216 230 411 -1 32 -2 33 -33
27 -38 -7 -47 -20 -42 -55 5 -33 -8 -53 -29 -45 -12 4 -17 18 -17 49 0 31 -5
45 -17 49 -26 10 -33 -12 -31 -102 1 -51 -3 -87 -10 -94 -24 -24 -35 9 -37
105 l-2 95 95 25 c52 14 97 28 100 32 10 9 -41 105 -75 140 -38 39 -91 79
-114 88 -16 5 -33 -30 -120 -248 -23 -59 -20 -66 25 -63 l41 3 3 -129 c2 -74
-1 -133 -6 -138 -10 -10 -45 2 -43 15 1 4 1 50 1 103 l0 96 -26 -6 c-67 -17
-81 -18 -87 -4 -3 8 30 100 73 206 66 163 75 192 61 198 -9 4 -56 8 -106 9
-66 2 -103 -3 -139 -16z"/>
</g>
</svg>
